<?xml version="1.0" encoding="UTF-8" standalone="no"?>
<!-- Created with Inkscape (http://www.inkscape.org/) -->

<svg
   xmlns:dc="http://purl.org/dc/elements/1.1/"
   xmlns:cc="http://creativecommons.org/ns#"
   xmlns:rdf="http://www.w3.org/1999/02/22-rdf-syntax-ns#"
   xmlns:svg="http://www.w3.org/2000/svg"
   xmlns="http://www.w3.org/2000/svg"
   version="1.1"
   width="892.91339"
   height="184.96063"
   id="svg3495">
  <defs
     id="defs3497">
    <clipPath
       id="clipPath3045">
      <path
         d="m 36,60.527 347.528,0 0,91.559 -347.528,0 0,-91.559 z"
         id="path3047" />
    </clipPath>
  </defs>
  <metadata
     id="metadata3500">
    <rdf:RDF>
      <cc:Work
         rdf:about="">
        <dc:format>image/svg+xml</dc:format>
        <dc:type
           rdf:resource="http://purl.org/dc/dcmitype/StillImage" />
        <dc:title></dc:title>
      </cc:Work>
    </rdf:RDF>
  </metadata>
  <g
     transform="translate(73.303132,-415.1908)"
     id="layer1">
    <g
       transform="matrix(5.7609877,0,0,-5.7609877,-810.9597,1131.4237)"
       id="g3041">
      <g
         clip-path="url(#clipPath3045)"
         id="g3043">
        <g
           transform="matrix(0.5246582,-0.0090485,0.0087585,0.508194,70.327042,33.231842)"
           id="g3049">
          <path
             d="m 184.613,140.026 c 2.773,-12.254 -17.064,-18.884 -36.967,-19.15 -19.835,-0.267 -39.94,5.492 -37.635,18.083 7.655,26.332 22.551,40.546 37.715,40.745 14.894,0.2 29.513,-13.884 36.887,-39.678"
             id="path3051"
             style="fill:#ffdd00;fill-opacity:1;fill-rule:evenodd;stroke:none" />
        </g>
        <g
           transform="matrix(0.5246582,-0.0090485,0.0087585,0.508194,70.327042,33.231842)"
           id="g3053">
          <path
             d="m 184.613,140.026 c 2.773,-12.254 -17.064,-18.884 -36.967,-19.15 -19.835,-0.267 -39.94,5.492 -37.635,18.083 7.655,26.332 22.551,40.546 37.715,40.745 14.894,0.2 29.513,-13.884 36.887,-39.678 z"
             id="path3055"
             style="fill:none;stroke:#123884;stroke-width:1.90199995;stroke-linecap:butt;stroke-linejoin:miter;stroke-miterlimit:2.61299992;stroke-opacity:1;stroke-dasharray:none" />
        </g>
        <g
           transform="matrix(0.5164337,0,0,0.5164337,70.327042,33.231842)"
           id="g3057">
          <path
             d="m 124.923,140.08 c -0.612,-1.194 -0.932,-2.508 -0.932,-3.893 0,-4.805 3.902,-8.718 8.698,-8.718 4.796,0 8.719,3.913 8.719,8.718 0,1.385 -0.341,2.699 -0.923,3.893 l -7.786,14.628 -7.776,-14.628 z"
             id="path3059"
             style="fill:#123884;fill-opacity:1;fill-rule:evenodd;stroke:none" />
        </g>
        <g
           transform="matrix(0.5164337,0,0,0.5164337,70.327042,33.231842)"
           id="g3061">
          <path
             d="m 124.923,140.08 c -0.612,-1.194 -0.932,-2.508 -0.932,-3.893 0,-4.805 3.902,-8.718 8.698,-8.718 4.796,0 8.719,3.913 8.719,8.718 0,1.385 -0.341,2.699 -0.923,3.893 l -7.786,14.628 -7.776,-14.628 z"
             id="path3063"
             style="fill:none;stroke:#123884;stroke-width:0.142;stroke-linecap:butt;stroke-linejoin:miter;stroke-miterlimit:2.61299992;stroke-opacity:1;stroke-dasharray:none" />
        </g>
        <g
           transform="matrix(0.5164337,0,0,0.5164337,70.327042,33.231842)"
           id="g3065">
          <path
             d="m 162.485,163.042 c 2.649,0 4.957,-0.843 6.883,-4.505 l 10.735,-20.306 c 0.612,-1.064 0.973,-2.298 0.973,-3.622 0,-4.013 -3.27,-7.284 -7.294,-7.284 -2.759,0 -5.167,1.555 -6.401,3.812 l -11.036,20.678 c -2.006,3.762 -5.618,5.207 -8.628,5.207 l -13.605,0 0.321,1.114 c 1.064,2.749 3.361,4.906 6.863,4.906 l 21.189,0 z"
             id="path3067"
             style="fill:#123884;fill-opacity:1;fill-rule:evenodd;stroke:none" />
        </g>
        <g
           transform="matrix(0.5164337,0,0,0.5164337,70.327042,33.231842)"
           id="g3069">
          <path
             d="m 162.485,163.042 c 2.649,0 4.957,-0.843 6.883,-4.505 l 10.735,-20.306 c 0.612,-1.064 0.973,-2.298 0.973,-3.622 0,-4.013 -3.27,-7.284 -7.294,-7.284 -2.759,0 -5.167,1.555 -6.401,3.812 l -11.036,20.678 c -2.006,3.762 -5.618,5.207 -8.628,5.207 l -13.605,0 0.321,1.114 c 1.064,2.749 3.361,4.906 6.863,4.906 l 21.189,0 z"
             id="path3071"
             style="fill:none;stroke:#123884;stroke-width:0.142;stroke-linecap:butt;stroke-linejoin:miter;stroke-miterlimit:2.61299992;stroke-opacity:1;stroke-dasharray:none" />
        </g>
        <g
           transform="matrix(0.5164337,0,0,0.5164337,70.327042,33.231842)"
           id="g3073">
          <path
             d="m 147.656,154.564 -12.14,0 12.462,-23.427 c 1.234,-2.257 3.642,-3.812 6.401,-3.812 4.023,0 7.294,3.271 7.294,7.284 0,1.324 -0.362,2.558 -0.974,3.622 l -6.31,12.009 c -1.445,2.749 -3.763,4.324 -6.733,4.324"
             id="path3075"
             style="fill:#123884;fill-opacity:1;fill-rule:evenodd;stroke:none" />
        </g>
        <g
           transform="matrix(0.5164337,0,0,0.5164337,70.327042,33.231842)"
           id="g3077">
          <path
             d="m 147.656,154.564 -12.14,0 12.462,-23.427 c 1.234,-2.257 3.642,-3.812 6.401,-3.812 4.023,0 7.294,3.271 7.294,7.284 0,1.324 -0.362,2.558 -0.974,3.622 l -6.31,12.009 c -1.445,2.749 -3.763,4.324 -6.733,4.324 z"
             id="path3079"
             style="fill:none;stroke:#123884;stroke-width:0.142;stroke-linecap:butt;stroke-linejoin:miter;stroke-miterlimit:2.61299992;stroke-opacity:1;stroke-dasharray:none" />
        </g>
        <g
           transform="matrix(0.5164337,0,0,0.5164337,70.327042,33.231842)"
           id="g3085">
          <path
             d="m 203.9,149.035 c 0.142,0.837 0.385,1.511 0.513,1.973 0.129,0.462 0.441,0.912 0.727,1.217 0.697,0.744 1.583,1.21 2.951,1.176 1.27,-0.032 2.18,-0.407 2.865,-1.26 0.632,-0.786 1.221,-2.232 1.753,-3.652 l 3.806,-10.159 -0.086,0 3.892,10.957 c 0.457,1.286 1.036,2.266 1.753,3.064 0.561,0.625 1.625,1.05 2.694,1.05 1.112,0 2.139,-0.283 2.738,-0.87 0.727,-0.714 1.151,-1.228 1.41,-2.699 l 3.122,-17.716 c 0,-0.126 0.087,-0.547 0.128,-1.049 0.037,-0.462 0.08,-0.84 0.08,-1.176 0,-0.713 -0.294,-1.553 -0.85,-2.015 -0.556,-0.462 -1.368,-0.671 -2.138,-0.671 -0.941,0 -1.711,0.251 -2.224,0.797 -0.47,0.462 -0.769,1.386 -0.898,2.225 l -2.052,12.427 -4.121,-13.057 c -0.217,-0.688 -0.659,-1.407 -1.198,-1.847 -0.521,-0.425 -1.443,-0.601 -2.331,-0.605 -1.124,-0.004 -2.043,0.339 -2.415,0.676 -0.609,0.552 -0.973,1.106 -1.181,1.776 l -4.063,13.057 -0.171,0 -1.71,-11.587 c -0.384,-2.603 -1.497,-3.862 -3.25,-3.862 -0.813,0 -1.55,0.24 -2.053,0.671 -0.523,0.45 -0.855,1.05 -0.855,1.973 l 0,0.42 c 0,0.336 0.075,0.84 0.117,1.05 0.086,0.42 0.154,0.675 0.225,1.091 l 2.822,16.625 z"
             id="path3087"
             style="fill:#123884;fill-opacity:1;fill-rule:evenodd;stroke:none" />
        </g>
        <g
           transform="matrix(0.5164337,0,0,0.5164337,70.327042,33.231842)"
           id="g3089">
          <path
             d="m 203.9,149.035 c 0.142,0.837 0.385,1.511 0.513,1.973 0.129,0.462 0.441,0.912 0.727,1.217 0.697,0.744 1.583,1.21 2.951,1.176 1.27,-0.032 2.18,-0.407 2.865,-1.26 0.632,-0.786 1.221,-2.232 1.753,-3.652 l 3.806,-10.159 -0.086,0 3.892,10.957 c 0.457,1.286 1.036,2.266 1.753,3.064 0.561,0.625 1.625,1.05 2.694,1.05 1.112,0 2.139,-0.283 2.738,-0.87 0.727,-0.714 1.151,-1.228 1.41,-2.699 l 3.122,-17.716 c 0,-0.126 0.087,-0.547 0.128,-1.049 0.037,-0.462 0.08,-0.84 0.08,-1.176 0,-0.713 -0.294,-1.553 -0.85,-2.015 -0.556,-0.462 -1.368,-0.671 -2.138,-0.671 -0.941,0 -1.711,0.251 -2.224,0.797 -0.47,0.462 -0.769,1.386 -0.898,2.225 l -2.052,12.427 -4.121,-13.057 c -0.217,-0.688 -0.659,-1.407 -1.198,-1.847 -0.521,-0.425 -1.443,-0.601 -2.331,-0.605 -1.124,-0.004 -2.043,0.339 -2.415,0.676 -0.609,0.552 -0.973,1.106 -1.181,1.776 l -4.063,13.057 -0.171,0 -1.71,-11.587 c -0.384,-2.603 -1.497,-3.862 -3.25,-3.862 -0.813,0 -1.55,0.24 -2.053,0.671 -0.523,0.45 -0.855,1.05 -0.855,1.973 l 0,0.42 c 0,0.336 0.075,0.84 0.117,1.05 0.086,0.42 0.154,0.675 0.225,1.091 l 2.822,16.625 z"
             id="path3091"
             style="fill:none;stroke:#123884;stroke-width:0.215;stroke-linecap:butt;stroke-linejoin:miter;stroke-miterlimit:2.61299992;stroke-opacity:1;stroke-dasharray:none" />
        </g>
        <g
           transform="matrix(0.5164337,0,0,0.5164337,70.327042,33.231842)"
           id="g3093">
          <path
             d="m 379.057,147.954 c -1.368,0 -2.592,-0.36 -3.456,-1.08 -0.936,-0.72 -1.656,-1.656 -2.088,-2.809 -0.36,-1.223 -0.72,-2.519 -0.72,-3.96 0,-2.088 0.576,-3.888 1.584,-5.328 1.08,-1.584 2.664,-2.304 4.68,-2.304 1.44,0 2.592,0.288 3.528,1.08 0.865,0.649 1.585,1.657 2.017,2.809 0.432,1.224 0.648,2.52 0.648,3.743 0,1.441 -0.144,2.737 -0.576,3.96 -0.432,1.153 -1.224,2.089 -2.089,2.809 -0.936,0.72 -2.088,1.08 -3.528,1.08 m 0,5.4 c 2.448,0 4.681,-0.504 6.553,-1.584 1.872,-1.008 3.312,-2.592 4.392,-4.608 1.008,-1.944 1.512,-4.32 1.512,-7.057 0,-2.592 -0.504,-4.895 -1.512,-6.84 -1.08,-2.016 -2.52,-3.528 -4.392,-4.608 -1.872,-1.008 -4.105,-1.512 -6.553,-1.512 -2.448,0 -4.68,0.432 -6.48,1.512 -1.872,1.08 -3.384,2.592 -4.392,4.536 -1.08,2.017 -1.584,4.32 -1.584,6.912 0,2.737 0.504,5.041 1.584,7.057 1.008,1.944 2.52,3.456 4.392,4.608 1.8,1.08 4.032,1.584 6.48,1.584"
             id="path3095"
             style="fill:#123884;fill-opacity:1;fill-rule:evenodd;stroke:none" />
        </g>
        <g
           transform="matrix(0.5164337,0,0,0.5164337,70.327042,33.231842)"
           id="g3097">
          <path
             d="m 379.057,147.954 c -1.368,0 -2.592,-0.36 -3.456,-1.08 -0.936,-0.72 -1.656,-1.656 -2.088,-2.809 -0.36,-1.223 -0.72,-2.519 -0.72,-3.96 0,-2.088 0.576,-3.888 1.584,-5.328 1.08,-1.584 2.664,-2.304 4.68,-2.304 1.44,0 2.592,0.288 3.528,1.08 0.865,0.649 1.585,1.657 2.017,2.809 0.432,1.224 0.648,2.52 0.648,3.743 0,1.441 -0.144,2.737 -0.576,3.96 -0.432,1.153 -1.224,2.089 -2.089,2.809 -0.936,0.72 -2.088,1.08 -3.528,1.08 z m 0,5.4 c 2.448,0 4.681,-0.504 6.553,-1.584 1.872,-1.008 3.312,-2.592 4.392,-4.608 1.008,-1.944 1.512,-4.32 1.512,-7.057 0,-2.592 -0.504,-4.895 -1.512,-6.84 -1.08,-2.016 -2.52,-3.528 -4.392,-4.608 -1.872,-1.008 -4.105,-1.512 -6.553,-1.512 -2.448,0 -4.68,0.432 -6.48,1.512 -1.872,1.08 -3.384,2.592 -4.392,4.536 -1.08,2.017 -1.584,4.32 -1.584,6.912 0,2.737 0.504,5.041 1.584,7.057 1.008,1.944 2.52,3.456 4.392,4.608 1.8,1.08 4.032,1.584 6.48,1.584 z"
             id="path3099"
             style="fill:none;stroke:#123884;stroke-width:0.215;stroke-linecap:butt;stroke-linejoin:miter;stroke-miterlimit:2.61299992;stroke-opacity:1;stroke-dasharray:none" />
        </g>
        <g
           transform="matrix(0.5164337,0,0,0.5164337,70.327042,33.231842)"
           id="g3101">
          <path
             d="m 234.713,132.576 6.356,16.553 c 1.017,2.703 2.585,4.295 4.661,4.295 2.119,0 3.771,-1.351 4.704,-4.005 l 6.398,-17.229 c 0.392,-1.056 0.448,-1.739 0.448,-2.415 0,-0.724 -0.226,-1.58 -0.745,-1.984 -0.581,-0.454 -1.313,-0.572 -2.118,-0.572 -1.483,0 -2.585,1.207 -3.094,2.606 l -0.805,2.22 -9.703,0 -0.763,-2.22 c -0.212,-0.724 -0.89,-1.785 -1.229,-1.979 -0.254,-0.241 -1.059,-0.627 -2.034,-0.627 -0.968,0 -1.603,0.205 -2.028,0.642 -0.376,0.386 -0.599,1.073 -0.599,1.842 0,0.724 0.17,1.763 0.551,2.873 m 7.67,4.681 6.398,0 -2.966,9.749 -0.17,0 -3.262,-9.749 z"
             id="path3103"
             style="fill:#123884;fill-opacity:1;fill-rule:evenodd;stroke:none" />
        </g>
        <g
           transform="matrix(0.5164337,0,0,0.5164337,70.327042,33.231842)"
           id="g3105">
          <path
             d="m 234.713,132.576 6.356,16.553 c 1.017,2.703 2.585,4.295 4.661,4.295 2.119,0 3.771,-1.351 4.704,-4.005 l 6.398,-17.229 c 0.392,-1.056 0.448,-1.739 0.448,-2.415 0,-0.724 -0.226,-1.58 -0.745,-1.984 -0.581,-0.454 -1.313,-0.572 -2.118,-0.572 -1.483,0 -2.585,1.207 -3.094,2.606 l -0.805,2.22 -9.703,0 -0.763,-2.22 c -0.212,-0.724 -0.89,-1.785 -1.229,-1.979 -0.254,-0.241 -1.059,-0.627 -2.034,-0.627 -0.968,0 -1.603,0.205 -2.028,0.642 -0.376,0.386 -0.599,1.073 -0.599,1.842 0,0.724 0.17,1.763 0.551,2.873 z m 7.67,4.681 6.398,0 -2.966,9.749 -0.17,0 -3.262,-9.749 z"
             id="path3107"
             style="fill:none;stroke:#123884;stroke-width:0.215;stroke-linecap:butt;stroke-linejoin:miter;stroke-miterlimit:2.61299992;stroke-opacity:1;stroke-dasharray:none" />
        </g>
        <g
           transform="matrix(0.5164337,0,0,0.5164337,70.327042,33.231842)"
           id="g3109">
          <path
             d="m 259.58,150.396 c 0,0.996 0.204,1.826 0.781,2.31 0.644,0.539 1.406,0.742 2.264,0.721 2.016,-0.05 3.003,-1.204 3.003,-3.073 l 0,-7.142 9.179,8.97 c 0.815,0.747 1.63,1.245 2.488,1.245 0.815,0 1.63,-0.166 2.273,-0.747 0.558,-0.54 0.858,-1.454 0.858,-2.118 0,-0.83 -0.729,-1.619 -1.244,-2.159 l -8.364,-7.765 8.536,-8.388 c 0.514,-0.498 0.901,-1.122 0.943,-1.785 0.067,-1.039 -0.174,-1.869 -0.772,-2.367 -0.529,-0.441 -1.415,-0.831 -2.187,-0.831 -1.073,0 -2.102,0.581 -3.046,1.578 l -8.664,8.679 0,-7.226 c 0,-1.121 -0.265,-2.037 -0.858,-2.45 -0.687,-0.477 -1.545,-0.726 -2.574,-0.664 -0.685,0.041 -1.373,0.249 -2.016,0.831 -0.429,0.498 -0.6,1.162 -0.6,2.2 l 0,20.181 z"
             id="path3111"
             style="fill:#123884;fill-opacity:1;fill-rule:evenodd;stroke:none" />
        </g>
        <g
           transform="matrix(0.5164337,0,0,0.5164337,70.327042,33.231842)"
           id="g3113">
          <path
             d="m 259.58,150.396 c 0,0.996 0.204,1.826 0.781,2.31 0.644,0.539 1.406,0.742 2.264,0.721 2.016,-0.05 3.003,-1.204 3.003,-3.073 l 0,-7.142 9.179,8.97 c 0.815,0.747 1.63,1.245 2.488,1.245 0.815,0 1.63,-0.166 2.273,-0.747 0.558,-0.54 0.858,-1.454 0.858,-2.118 0,-0.83 -0.729,-1.619 -1.244,-2.159 l -8.364,-7.765 8.536,-8.388 c 0.514,-0.498 0.901,-1.122 0.943,-1.785 0.067,-1.039 -0.174,-1.869 -0.772,-2.367 -0.529,-0.441 -1.415,-0.831 -2.187,-0.831 -1.073,0 -2.102,0.581 -3.046,1.578 l -8.664,8.679 0,-7.226 c 0,-1.121 -0.265,-2.037 -0.858,-2.45 -0.687,-0.477 -1.545,-0.726 -2.574,-0.664 -0.685,0.041 -1.373,0.249 -2.016,0.831 -0.429,0.498 -0.6,1.162 -0.6,2.2 l 0,20.181 z"
             id="path3115"
             style="fill:none;stroke:#123884;stroke-width:0.215;stroke-linecap:butt;stroke-linejoin:miter;stroke-miterlimit:2.61299992;stroke-opacity:1;stroke-dasharray:none" />
        </g>
        <g
           transform="matrix(0.5164337,0,0,0.5164337,70.327042,33.231842)"
           id="g3117">
          <path
             d="m 304.511,142.848 0,7.445 c 0,1.07 0.457,1.897 0.772,2.225 0.483,0.503 1.327,0.813 2.059,0.813 l 10.81,0 c 0.857,0 1.612,-0.309 1.966,-0.684 0.332,-0.353 0.763,-1.08 0.802,-2.02 0.031,-0.728 -0.422,-1.618 -0.71,-1.917 -0.294,-0.305 -1.115,-0.727 -2.058,-0.727 l -7.55,0 0,-4.878 7.335,0 c 0.815,0 1.774,-0.257 2.178,-0.849 0.188,-0.276 0.653,-0.837 0.653,-1.932 0,-0.859 -0.479,-1.658 -0.699,-1.909 -0.38,-0.433 -1.109,-0.873 -2.132,-0.873 l -7.335,0 0,-4.963 7.635,0 c 1.073,0 1.867,-0.317 2.316,-0.813 0.367,-0.404 0.664,-1.209 0.644,-1.936 -0.022,-0.813 -0.252,-1.588 -0.69,-1.961 -0.656,-0.559 -1.451,-0.724 -2.27,-0.724 l -10.637,0 c -1.073,0 -1.931,0.342 -2.317,0.77 -0.429,0.471 -0.772,1.37 -0.772,2.097 l 0,12.836 z"
             id="path3119"
             style="fill:#123884;fill-opacity:1;fill-rule:evenodd;stroke:none" />
        </g>
        <g
           transform="matrix(0.5164337,0,0,0.5164337,70.327042,33.231842)"
           id="g3121">
          <path
             d="m 304.511,142.848 0,7.445 c 0,1.07 0.457,1.897 0.772,2.225 0.483,0.503 1.327,0.813 2.059,0.813 l 10.81,0 c 0.857,0 1.612,-0.309 1.966,-0.684 0.332,-0.353 0.763,-1.08 0.802,-2.02 0.031,-0.728 -0.422,-1.618 -0.71,-1.917 -0.294,-0.305 -1.115,-0.727 -2.058,-0.727 l -7.55,0 0,-4.878 7.335,0 c 0.815,0 1.774,-0.257 2.178,-0.849 0.188,-0.276 0.653,-0.837 0.653,-1.932 0,-0.859 -0.479,-1.658 -0.699,-1.909 -0.38,-0.433 -1.109,-0.873 -2.132,-0.873 l -7.335,0 0,-4.963 7.635,0 c 1.073,0 1.867,-0.317 2.316,-0.813 0.367,-0.404 0.664,-1.209 0.644,-1.936 -0.022,-0.813 -0.252,-1.588 -0.69,-1.961 -0.656,-0.559 -1.451,-0.724 -2.27,-0.724 l -10.637,0 c -1.073,0 -1.931,0.342 -2.317,0.77 -0.429,0.471 -0.772,1.37 -0.772,2.097 l 0,12.836 z"
             id="path3123"
             style="fill:none;stroke:#123884;stroke-width:0.215;stroke-linecap:butt;stroke-linejoin:miter;stroke-miterlimit:2.61299992;stroke-opacity:1;stroke-dasharray:none" />
        </g>
        <g
           transform="matrix(0.5164337,0,0,0.5164337,70.327042,33.231842)"
           id="g3125">
          <path
             d="m 329.72,130.129 0,17.882 -3.817,0 c -1.072,0 -1.837,0.306 -2.273,0.681 -0.508,0.434 -0.862,1.064 -0.862,1.788 0,1.962 0.99,2.853 3.135,2.853 l 14.584,0 c 2.145,0 3.131,-0.937 3.131,-2.853 0,-0.724 -0.429,-1.519 -0.729,-1.788 -0.456,-0.41 -1.338,-0.681 -2.402,-0.681 l -4.204,0 0,-17.882 c 0,-1.107 -0.429,-2.001 -0.944,-2.427 -0.386,-0.341 -1.203,-0.616 -2.187,-0.681 -0.944,-0.063 -2.07,0.308 -2.445,0.681 -0.51,0.507 -1.033,1.32 -0.987,2.427"
             id="path3127"
             style="fill:#123884;fill-opacity:1;fill-rule:evenodd;stroke:none" />
        </g>
        <g
           transform="matrix(0.5164337,0,0,0.5164337,70.327042,33.231842)"
           id="g3129">
          <path
             d="m 329.72,130.129 0,17.882 -3.817,0 c -1.072,0 -1.837,0.306 -2.273,0.681 -0.508,0.434 -0.862,1.064 -0.862,1.788 0,1.962 0.99,2.853 3.135,2.853 l 14.584,0 c 2.145,0 3.131,-0.937 3.131,-2.853 0,-0.724 -0.429,-1.519 -0.729,-1.788 -0.456,-0.41 -1.338,-0.681 -2.402,-0.681 l -4.204,0 0,-17.882 c 0,-1.107 -0.429,-2.001 -0.944,-2.427 -0.386,-0.341 -1.203,-0.616 -2.187,-0.681 -0.944,-0.063 -2.07,0.308 -2.445,0.681 -0.51,0.507 -1.033,1.32 -0.987,2.427 z"
             id="path3131"
             style="fill:none;stroke:#123884;stroke-width:0.215;stroke-linecap:butt;stroke-linejoin:miter;stroke-miterlimit:2.61299992;stroke-opacity:1;stroke-dasharray:none" />
        </g>
        <g
           transform="matrix(0.5164337,0,0,0.5164337,70.327042,33.231842)"
           id="g3133">
          <path
             d="m 282.856,150.583 c 0,0.593 0.172,1.382 0.73,1.925 0.471,0.543 1.2,0.937 2.23,0.937 l 6.949,0 c 2.161,0 4.043,-0.345 5.399,-1.187 1.422,-0.883 2.233,-1.675 2.922,-2.949 0.73,-1.348 1.136,-3.117 1.116,-4.597 -0.023,-1.678 -0.429,-3.257 -1.116,-4.491 -0.6,-1.283 -1.501,-2.417 -2.831,-3.059 -1.286,-0.789 -2.788,-1.085 -4.504,-1.085 l -4.89,0 0,-5.773 c 0,-0.938 -0.3,-1.876 -0.943,-2.467 -0.472,-0.395 -1.244,-0.642 -2.188,-0.642 -2.016,0.197 -2.874,1.184 -2.874,3.109 l 0,20.279 z m 6.005,-2.171 0,-7.253 3.389,0 c 0.944,0 1.887,0.296 2.531,0.987 0.686,0.691 1.115,1.48 1.115,2.566 0,1.036 -0.386,1.974 -1.029,2.664 -0.687,0.691 -1.673,1.036 -2.874,1.036 l -3.132,0 z"
             id="path3135"
             style="fill:#123884;fill-opacity:1;fill-rule:evenodd;stroke:none" />
        </g>
        <g
           transform="matrix(0.5164337,0,0,0.5164337,70.327042,33.231842)"
           id="g3137">
          <path
             d="m 282.856,150.583 c 0,0.593 0.172,1.382 0.73,1.925 0.471,0.543 1.2,0.937 2.23,0.937 l 6.949,0 c 2.161,0 4.043,-0.345 5.399,-1.187 1.422,-0.883 2.233,-1.675 2.922,-2.949 0.73,-1.348 1.136,-3.117 1.116,-4.597 -0.023,-1.678 -0.429,-3.257 -1.116,-4.491 -0.6,-1.283 -1.501,-2.417 -2.831,-3.059 -1.286,-0.789 -2.788,-1.085 -4.504,-1.085 l -4.89,0 0,-5.773 c 0,-0.938 -0.3,-1.876 -0.943,-2.467 -0.472,-0.395 -1.244,-0.642 -2.188,-0.642 -2.016,0.197 -2.874,1.184 -2.874,3.109 l 0,20.279 z m 6.005,-2.171 0,-7.253 3.389,0 c 0.944,0 1.887,0.296 2.531,0.987 0.686,0.691 1.115,1.48 1.115,2.566 0,1.036 -0.386,1.974 -1.029,2.664 -0.687,0.691 -1.673,1.036 -2.874,1.036 l -3.132,0 z"
             id="path3139"
             style="fill:none;stroke:#123884;stroke-width:0.215;stroke-linecap:butt;stroke-linejoin:miter;stroke-miterlimit:2.61299992;stroke-opacity:1;stroke-dasharray:none" />
        </g>
        <g
           transform="matrix(0.5164337,0,0,0.5164337,70.327042,33.231842)"
           id="g3141">
          <path
             d="m 393.868,150.356 c 0,0.864 0.351,1.715 0.852,2.216 0.502,0.501 1.236,0.88 2.244,0.88 0.648,0 1.258,-0.187 1.911,-0.755 0.6,-0.523 0.897,-1.478 0.897,-2.629 l 0,-17.424 7.992,0 c 0.864,0 1.718,-0.428 2.16,-0.922 0.259,-0.29 0.653,-1.074 0.659,-1.938 0.004,-0.647 -0.292,-1.543 -0.739,-1.985 -0.618,-0.613 -1.234,-0.771 -2.08,-0.771 l -11.088,0 c -1.008,0 -1.746,0.384 -2.232,0.992 -0.278,0.347 -0.576,0.988 -0.576,1.816 l 0,20.52 z"
             id="path3143"
             style="fill:#123884;fill-opacity:1;fill-rule:evenodd;stroke:none" />
        </g>
        <g
           transform="matrix(0.5164337,0,0,0.5164337,70.327042,33.231842)"
           id="g3145">
          <path
             d="m 393.868,150.356 c 0,0.864 0.351,1.715 0.852,2.216 0.502,0.501 1.236,0.88 2.244,0.88 0.648,0 1.258,-0.187 1.911,-0.755 0.6,-0.523 0.897,-1.478 0.897,-2.629 l 0,-17.424 7.992,0 c 0.864,0 1.718,-0.428 2.16,-0.922 0.259,-0.29 0.653,-1.074 0.659,-1.938 0.004,-0.647 -0.292,-1.543 -0.739,-1.985 -0.618,-0.613 -1.234,-0.771 -2.08,-0.771 l -11.088,0 c -1.008,0 -1.746,0.384 -2.232,0.992 -0.278,0.347 -0.576,0.988 -0.576,1.816 l 0,20.52 z"
             id="path3147"
             style="fill:none;stroke:#123884;stroke-width:0.215;stroke-linecap:butt;stroke-linejoin:miter;stroke-miterlimit:2.61299992;stroke-opacity:1;stroke-dasharray:none" />
        </g>
        <g
           transform="matrix(0.5164337,0,0,0.5164337,70.327042,33.231842)"
           id="g3149">
          <path
             d="m 351.896,147.764 0,-5.688 3.744,0 c 0.576,0 1.544,0.35 2.232,0.877 0.54,0.412 0.936,1.355 0.936,2.003 0,0.576 -0.402,1.633 -0.914,2.024 -0.727,0.556 -1.318,0.784 -2.254,0.784 l -3.744,0 z m -5.976,2.52 c 0,0.936 0.129,1.682 0.576,2.232 0.562,0.692 1.224,0.936 2.52,0.936 l 6.912,0 c 2.88,0 5.04,-0.936 6.624,-2.52 1.584,-1.584 2.232,-3.456 2.232,-5.976 0,-1.584 -0.355,-2.952 -1.152,-3.976 -0.735,-0.947 -1.496,-1.58 -2.304,-2 -1.009,-0.525 -1.944,-0.936 -2.52,-0.936 l 5.328,-5.976 c 0.648,-0.72 0.936,-1.296 0.936,-2.232 0,-0.936 -0.288,-1.584 -0.936,-2.232 -0.936,-0.576 -1.584,-0.635 -2.52,-0.576 -0.934,0.059 -1.584,0.576 -2.232,1.224 l -7.488,9.504 0,-7.632 c 0,-0.864 -0.216,-1.961 -1.008,-2.52 -0.612,-0.432 -1.224,-0.576 -2.16,-0.576 -1.872,0 -2.808,1.224 -2.808,3.096 l 0,20.16 z"
             id="path3151"
             style="fill:#123884;fill-opacity:1;fill-rule:evenodd;stroke:none" />
        </g>
        <g
           transform="matrix(0.5164337,0,0,0.5164337,70.327042,33.231842)"
           id="g3153">
          <path
             d="m 351.896,147.764 0,-5.688 3.744,0 c 0.576,0 1.544,0.35 2.232,0.877 0.54,0.412 0.936,1.355 0.936,2.003 0,0.576 -0.402,1.633 -0.914,2.024 -0.727,0.556 -1.318,0.784 -2.254,0.784 l -3.744,0 z m -5.976,2.52 c 0,0.936 0.129,1.682 0.576,2.232 0.562,0.692 1.224,0.936 2.52,0.936 l 6.912,0 c 2.88,0 5.04,-0.936 6.624,-2.52 1.584,-1.584 2.232,-3.456 2.232,-5.976 0,-1.584 -0.355,-2.952 -1.152,-3.976 -0.735,-0.947 -1.496,-1.58 -2.304,-2 -1.009,-0.525 -1.944,-0.936 -2.52,-0.936 l 5.328,-5.976 c 0.648,-0.72 0.936,-1.296 0.936,-2.232 0,-0.936 -0.288,-1.584 -0.936,-2.232 -0.936,-0.576 -1.584,-0.635 -2.52,-0.576 -0.934,0.059 -1.584,0.576 -2.232,1.224 l -7.488,9.504 0,-7.632 c 0,-0.864 -0.216,-1.961 -1.008,-2.52 -0.612,-0.432 -1.224,-0.576 -2.16,-0.576 -1.872,0 -2.808,1.224 -2.808,3.096 l 0,20.16 z"
             id="path3155"
             style="fill:none;stroke:#123884;stroke-width:0.215;stroke-linecap:butt;stroke-linejoin:miter;stroke-miterlimit:2.61299992;stroke-opacity:1;stroke-dasharray:none" />
        </g>
      </g>
    </g>
  </g>
</svg>
